<?xml version="1.0" encoding="utf-8"?>
<!-- Generator: Adobe Illustrator 26.0.3, SVG Export Plug-In . SVG Version: 6.00 Build 0)  -->
<svg version="1.0" id="katman_1" xmlns="http://www.w3.org/2000/svg" xmlns:xlink="http://www.w3.org/1999/xlink" x="0px" y="0px"
	 viewBox="0 0 600 450" style="enable-background:new 0 0 600 450;" xml:space="preserve">
<g id="Layer_2_1_">
	<g id="Layer_1-2">
		<path d="M214.1,228.1c6.3,0,12.6,2.3,17.5,6.6c3.2,2.9,7.7,2.6,10.6-0.3c2.9-3.2,2.6-7.7-0.6-10.6c-7.5-7.2-17.2-10.9-27.5-10.9
			c-22.6,0-41,18.3-41,41s18.3,41,41,41c10,0,19.8-3.7,27.2-10.6c3.2-2.9,3.4-7.5,0.6-10.6c-2.9-3.2-7.5-3.4-10.6-0.6
			c-4.6,4.3-10.9,6.6-17.2,6.6c-14.3,0-26.1-11.8-26.1-26.1S199.8,228.1,214.1,228.1z"/>
		<path d="M153.1,216.1c-4.3,0-7.7,3.4-7.7,7.5l0,0v33.8c0,12.6-10,22.6-22.6,22.6s-22.6-10-22.6-22.6v-33.5c0-4-3.4-7.5-7.5-7.5
			c-4,0-7.5,3.4-7.5,7.5v33.5c0,20.9,16.9,37.8,37.8,37.8c8.3,0,16.6-2.9,23.2-8c1.7,3.7,6,5.7,9.7,4c2.9-1.1,4.6-4,4.6-6.9v-60.5
			C160.6,219.5,157.1,216.1,153.1,216.1z"/>
		<path d="M309,216.1c-12.9-6-27.8-4-39,4.6c-1.4-3.7-6-5.7-9.7-4.3c-2.9,1.1-4.9,4-4.6,7.2V284c0,4.3,3.4,7.5,7.5,7.5
			c4,0,7.5-3.4,7.5-7.5v-33.2c0-12.6,10.3-22.6,22.6-22.6c3.2,0,6.3,0.6,9.5,2c3.7,1.7,8.3,0,10-3.7l0,0c1.7-3.7,0.3-8-3.4-9.7
			C309.3,216.3,309,216.3,309,216.1z"/>
		<path d="M356.3,212.9c-22.6,0-41,18.3-41,41s18.3,41,41,41c9.5,0,18.9-3.4,26.1-9.5c0.9,4,4.9,6.9,8.9,6c3.4-0.6,6-3.7,6-7.5
			v-30.1C397.3,231.2,378.9,212.9,356.3,212.9z M356.3,280.3c-14.3,0-26.1-11.8-26.1-26.1s11.8-26.1,26.1-26.1s26.1,11.8,26.1,26.1
			S370.6,280,356.3,280.3L356.3,280.3z"/>
		<path d="M507.6,280.3c-9.7,0-17.5-8-17.5-17.8v-48.1h14.3c4.3,0,7.5-3.4,7.5-7.5c0-4.3-3.4-7.5-7.5-7.5h-14.3v-32.1
			c0-4.3-3.4-7.5-7.5-7.5c-4,0-7.5,3.4-7.5,7.5v31.8h-44.4v-10.9c0-9.7,8-17.5,17.8-17.8c4,0,7.5-3.4,7.5-7.5c0-4-3.4-7.5-7.5-7.5
			c-18.1,0-32.7,14.6-32.7,32.7l0,0v10.9h-9.2c-4.3,0-7.5,3.4-7.5,7.5s3.4,7.5,7.5,7.5l0,0h9.2V284c0,4.3,3.4,7.5,7.5,7.5
			c4.3,0,7.5-3.4,7.5-7.5v-69.6h44.1v47.9c0,18.1,14.6,32.7,32.7,32.7l0,0c4,0,7.5-3.4,7.5-7.5C515.1,283.4,511.6,280.3,507.6,280.3
			L507.6,280.3z"/>
	</g>
</g>
</svg>
